<?xml version="1.0" encoding="UTF-8"?>
<!DOCTYPE svg PUBLIC "-//W3C//DTD SVG 1.1//EN" "http://www.w3.org/Graphics/SVG/1.1/DTD/svg11.dtd">
<!-- Creator: CorelDRAW (OEM Version) -->
<svg xmlns="http://www.w3.org/2000/svg" xml:space="preserve" width="100%" height="100%" version="1.1" style="shape-rendering:geometricPrecision; text-rendering:geometricPrecision; image-rendering:optimizeQuality; fill-rule:evenodd; clip-rule:evenodd"
viewBox="0 0 13.825 11.43038"
 xmlns:xlink="http://www.w3.org/1999/xlink"
 xmlns:xodm="http://www.corel.com/coreldraw/odm/2003">
 <defs>
  <style type="text/css">
   <![CDATA[
    .str1 {stroke:#BDBFC1;stroke-width:0.02;stroke-miterlimit:22.9256}
    .str2 {stroke:#A9ABAE;stroke-width:0.02;stroke-miterlimit:22.9256}
    .str0 {stroke:#727376;stroke-width:0.02;stroke-miterlimit:22.9256}
    .str3 {stroke:#FB8C00;stroke-width:0.02;stroke-miterlimit:22.9256}
    .fil6 {fill:#FEFEFE;fill-rule:nonzero}
    .fil7 {fill:#FEFEFE;fill-rule:nonzero}
    .fil8 {fill:#D2D3D5;fill-rule:nonzero}
    .fil4 {fill:#BDBFC1;fill-rule:nonzero}
    .fil5 {fill:#A9ABAE;fill-rule:nonzero}
    .fil9 {fill:#848688;fill-rule:nonzero}
    .fil1 {fill:#727376;fill-rule:nonzero}
    .fil0 {fill:#4B4B4D;fill-rule:nonzero}
    .fil10 {fill:#4B4B4D;fill-rule:nonzero}
    .fil3 {fill:#CDC1DF;fill-rule:nonzero}
    .fil2 {fill:#FB8C00;fill-rule:nonzero}
   ]]>
  </style>
 </defs>
 <g id="Layer_x0020_1">
  <metadata id="CorelCorpID_0Corel-Layer"/>
  <path class="fil0" d="M0.5303 5.52331c0.71594,0.81054 1.62218,1.12547 2.06908,2.11025 0.30635,0.67504 0.16263,1.47422 0.38897,2.18013 0.31023,0.96745 1.32948,1.61745 2.34551,1.62094 1.01604,0.00345 1.98451,-0.57213 2.58744,-1.38998 0.1977,-0.26818 0.36911,-0.56977 0.64629,-0.7547 0.39698,-0.26483 0.91193,-0.23078 1.38723,-0.27312 1.17196,-0.10438 2.28258,-0.76253 2.93698,-1.74036 0,0 1.69767,-2.00314 0.49586,-4.86874 -0.34928,-0.83295 -0.91556,-1.59791 -1.6964,-2.05186 -0.78087,-0.45392 -2.1396,-0.46475 -2.94358,-0.05317 -0.85481,0.43759 -1.42307,1.39669 -2.35996,1.60736 -0.54304,0.1221 -1.10374,-0.03658 -1.65058,-0.14037 -0.76715,-0.14562 -1.54908,-0.23607 -2.32371,-0.13772 -0.91168,0.11578 -1.83127,0.57291 -2.25655,1.60069 -0.14895,0.35994 -0.19898,0.75481 -0.13965,1.13979 0.05324,0.3453 0.18779,0.78263 0.51307,1.15086z"/>
  <path class="fil1 str0" d="M10.95339 6.85766l-7.46974 0c-0.0701,0 -0.12746,-0.05736 -0.12746,-0.12746l0 -4.79286c0,-0.0701 0.05736,-0.12746 0.12746,-0.12746l7.46974 0c0.0701,0 0.12746,0.05736 0.12746,0.12746l0 4.79286c0,0.0701 -0.05736,0.12746 -0.12746,0.12746z"/>
  <polygon class="fil2" points="10.88964,6.36818 3.54739,6.36818 3.54739,2.17698 10.88964,2.17698 "/>
  <path class="fil3" d="M7.26467 1.9784c0,0.02551 -0.02067,0.04614 -0.04617,0.04614 -0.02548,0 -0.04615,-0.02063 -0.04615,-0.04614 0,-0.02547 0.02067,-0.04614 0.04615,-0.04614 0.0255,0 0.04617,0.02067 0.04617,0.04614z"/>
  <path class="fil4 str1" d="M12.12048 8.50467l-0.94883 -1.51006c-0.05355,-0.08523 -0.14714,-0.13695 -0.24775,-0.13695l-3.87079 0 -0.21413 0 -3.32584 0c-0.10065,0 -0.19424,0.05172 -0.24776,0.13695l-0.94883 1.51006c-0.02684,0.04276 -0.0364,0.09359 -0.02801,0.14263l9.85992 0c0.00843,-0.04904 -0.00113,-0.09987 -0.02798,-0.14263z"/>
  <path class="fil5 str2" d="M2.28854 8.6473c0.00173,0.01013 0.00395,0.02022 0.00723,0.03009l0.01496 0.04484c0.02773,0.08319 0.10552,0.13924 0.19315,0.13924l4.3351 0 0.21413 0 4.88001 0c0.08763,0 0.16542,-0.05605 0.19315,-0.13924l0.01496 -0.04484c0.00328,-0.00987 0.0055,-0.01996 0.00723,-0.03009l-9.85992 0z"/>
  <g id="_3024247035328">
   <polygon class="fil6" points="3.87019,7.60287 3.91636,7.50123 3.68776,7.50123 3.63883,7.60287 "/>
   <polygon class="fil6" points="4.27295,7.31355 4.29564,7.2605 4.31641,7.21185 4.09519,7.21185 4.04897,7.31355 "/>
   <polygon class="fil6" points="3.96364,7.50123 3.91746,7.60287 4.14927,7.60287 4.19273,7.50123 "/>
   <polygon class="fil6" points="3.93594,7.45819 3.98216,7.35652 3.75744,7.35652 3.70847,7.45819 "/>
   <polygon class="fil6" points="8.59101,7.21185 8.61659,7.31355 8.81323,7.31355 8.7849,7.21185 "/>
   <polygon class="fil6" points="5.06346,7.50123 5.03238,7.60287 5.26613,7.60287 5.29583,7.50123 "/>
   <polygon class="fil6" points="4.79005,7.50123 4.75347,7.60287 4.9874,7.60287 5.01844,7.50123 "/>
   <polygon class="fil6" points="4.51542,7.50123 4.47474,7.60287 4.70775,7.60287 4.74433,7.50123 "/>
   <polygon class="fil6" points="4.23954,7.50123 4.19608,7.60287 4.42835,7.60287 4.46906,7.50123 "/>
   <polygon class="fil6" points="8.82953,7.21185 8.85785,7.31355 9.04154,7.31355 9.01181,7.21185 "/>
   <polygon class="fil6" points="5.854,7.35652 5.82842,7.45819 6.01328,7.45819 6.0361,7.35652 "/>
   <polygon class="fil6" points="7.85953,7.21185 7.87688,7.31355 8.09017,7.31355 8.0701,7.21185 "/>
   <polygon class="fil6" points="5.82048,7.31355 5.84602,7.21185 5.65217,7.21185 5.62381,7.31355 "/>
   <polygon class="fil6" points="5.57915,7.31355 5.60747,7.21185 5.42519,7.21185 5.39549,7.31355 "/>
   <polygon class="fil6" points="6.04577,7.31355 6.06859,7.21185 5.89037,7.21185 5.86483,7.31355 "/>
   <polygon class="fil6" points="9.05664,7.21185 9.08638,7.31355 9.31622,7.31355 9.28507,7.21185 "/>
   <polygon class="fil6" points="4.89419,7.21185 4.85761,7.31355 5.07584,7.31355 5.09189,7.26106 5.10692,7.21185 "/>
   <polygon class="fil6" points="4.81186,7.31355 4.84844,7.21185 4.6313,7.21185 4.59059,7.31355 "/>
   <polygon class="fil6" points="4.36323,7.21185 4.31973,7.31355 4.54424,7.31355 4.5654,7.2606 4.58495,7.21185 "/>
   <polygon class="fil6" points="8.36844,7.21185 8.39127,7.31355 8.57221,7.31355 8.54663,7.21185 "/>
   <polygon class="fil6" points="8.11395,7.21185 8.13406,7.31355 8.34717,7.31355 8.32435,7.21185 "/>
   <polygon class="fil6" points="5.35069,7.31355 5.38039,7.21185 5.1519,7.21185 5.12082,7.31355 "/>
   <polygon class="fil6" points="5.61947,7.16884 5.64586,7.07416 5.46545,7.07416 5.43775,7.16884 "/>
   <polygon class="fil6" points="5.39295,7.16884 5.42061,7.07416 5.19402,7.07416 5.16506,7.16884 "/>
   <polygon class="fil6" points="7.60835,7.21185 7.6202,7.31355 7.83321,7.31355 7.81592,7.21185 "/>
   <polygon class="fil6" points="6.33155,7.16884 6.35025,7.07416 6.14363,7.07416 6.12239,7.16884 "/>
   <polygon class="fil6" points="6.07826,7.16884 6.09953,7.07416 5.92501,7.07416 5.90123,7.16884 "/>
   <polygon class="fil6" points="5.85685,7.16884 5.88067,7.07416 5.69052,7.07416 5.66413,7.16884 "/>
   <polygon class="fil6" points="4.33483,7.16884 4.37529,7.07416 4.15773,7.07416 4.11473,7.16884 "/>
   <polygon class="fil6" points="4.60216,7.16884 4.64005,7.07416 4.42207,7.07416 4.38161,7.16884 "/>
   <polygon class="fil6" points="5.12008,7.16884 5.149,7.07416 4.94369,7.07416 4.90965,7.16884 "/>
   <polygon class="fil6" points="4.86393,7.16884 4.89797,7.07416 4.68641,7.07416 4.64852,7.16884 "/>
   <polygon class="fil6" points="9.33008,7.21185 9.36123,7.31355 9.57946,7.31355 9.54284,7.21185 "/>
   <polygon class="fil6" points="6.30978,7.50123 6.28968,7.60287 6.51083,7.60287 6.52815,7.50123 "/>
   <polygon class="fil6" points="5.34063,7.50123 5.31097,7.60287 5.49854,7.60287 5.52683,7.50123 "/>
   <polygon class="fil6" points="6.04774,7.50123 6.02488,7.60287 6.24583,7.60287 6.2659,7.50123 "/>
   <polygon class="fil6" points="5.57149,7.50123 5.5432,7.60287 5.74763,7.60287 5.77321,7.50123 "/>
   <polygon class="fil6" points="5.81759,7.50123 5.79201,7.60287 5.98078,7.60287 6.00361,7.50123 "/>
   <polygon class="fil6" points="6.62111,7.21185 6.60379,7.31355 6.81682,7.31355 6.82868,7.21185 "/>
   <polygon class="fil6" points="6.58481,7.16884 6.60093,7.07416 6.3941,7.07416 6.3754,7.16884 "/>
   <polygon class="fil6" points="6.33832,7.35652 6.31825,7.45819 6.53549,7.45819 6.55281,7.35652 "/>
   <polygon class="fil6" points="6.79999,7.45819 6.81181,7.35652 6.59645,7.35652 6.57913,7.45819 "/>
   <polygon class="fil6" points="9.58856,7.21185 9.62518,7.31355 9.84644,7.31355 9.80573,7.21185 "/>
   <polygon class="fil6" points="4.0017,7.31355 4.04791,7.21185 3.82711,7.21185 3.77815,7.31355 "/>
   <polygon class="fil6" points="8.89387,7.60287 8.86554,7.50123 8.66383,7.50123 8.6894,7.60287 "/>
   <polygon class="fil6" points="5.61181,7.35652 5.58352,7.45819 5.78404,7.45819 5.80962,7.35652 "/>
   <polygon class="fil6" points="9.27194,7.16884 9.24302,7.07416 9.01643,7.07416 9.04405,7.16884 "/>
   <polygon class="fil6" points="9.78848,7.16884 9.75063,7.07416 9.53903,7.07416 9.57311,7.16884 "/>
   <polygon class="fil6" points="9.52743,7.16884 9.49331,7.07416 9.288,7.07416 9.31696,7.16884 "/>
   <polygon class="fil6" points="8.31468,7.16884 8.29341,7.07416 8.08682,7.07416 8.10545,7.16884 "/>
   <polygon class="fil6" points="8.06163,7.16884 8.04297,7.07416 7.83607,7.07416 7.85219,7.16884 "/>
   <polygon class="fil6" points="8.7729,7.16884 8.74652,7.07416 8.55637,7.07416 8.58018,7.16884 "/>
   <polygon class="fil6" points="8.5358,7.16884 8.51199,7.07416 8.33751,7.07416 8.35878,7.16884 "/>
   <polygon class="fil6" points="8.64502,7.60287 8.61945,7.50123 8.43343,7.50123 8.45622,7.60287 "/>
   <polygon class="fil6" points="9.68357,7.60287 9.64698,7.50123 9.41859,7.50123 9.44967,7.60287 "/>
   <polygon class="fil6" points="8.41212,7.60287 8.38933,7.50123 8.17114,7.50123 8.19121,7.60287 "/>
   <polygon class="fil6" points="9.12611,7.60287 9.09637,7.50123 8.91021,7.50123 8.9385,7.60287 "/>
   <polygon class="fil6" points="9.40466,7.60287 9.37354,7.50123 9.14117,7.50123 9.17091,7.60287 "/>
   <polygon class="fil6" points="8.99925,7.16884 8.97162,7.07416 8.79118,7.07416 8.81757,7.16884 "/>
   <polygon class="fil6" points="7.61054,7.60287 7.59872,7.50123 7.37569,7.50123 7.37982,7.60287 "/>
   <polygon class="fil6" points="4.30139,7.35652 4.2787,7.40954 4.25792,7.45819 4.48631,7.45819 4.52699,7.35652 "/>
   <polygon class="fil6" points="7.8579,7.45819 7.84055,7.35652 7.62518,7.35652 7.63707,7.45819 "/>
   <polygon class="fil6" points="4.21111,7.45819 4.25457,7.35652 4.02939,7.35652 4.00523,7.40969 3.98318,7.45819 "/>
   <polygon class="fil6" points="6.11272,7.21185 6.0899,7.31355 6.30298,7.31355 6.32305,7.21185 "/>
   <polygon class="fil6" points="6.36693,7.21185 6.34683,7.31355 6.56015,7.31355 6.57751,7.21185 "/>
   <polygon class="fil6" points="5.10766,7.35652 5.07658,7.45819 5.30839,7.45819 5.33809,7.35652 "/>
   <polygon class="fil6" points="4.57334,7.35652 4.53267,7.45819 4.75979,7.45819 4.79637,7.35652 "/>
   <polygon class="fil6" points="5.38293,7.35652 5.35323,7.45819 5.53882,7.45819 5.56715,7.35652 "/>
   <polygon class="fil6" points="7.36987,7.35652 7.374,7.45819 7.59371,7.45819 7.58186,7.35652 "/>
   <polygon class="fil6" points="4.84212,7.35652 4.80554,7.45819 5.0316,7.45819 5.06272,7.35652 "/>
   <polygon class="fil6" points="7.56005,7.16884 7.54901,7.07416 7.35848,7.07416 7.36232,7.16884 "/>
   <polygon class="fil6" points="8.14736,7.60287 8.12729,7.50123 7.90888,7.50123 7.9262,7.60287 "/>
   <polygon class="fil6" points="7.12155,7.07416 7.11774,7.16884 7.31925,7.16884 7.3154,7.07416 "/>
   <polygon class="fil6" points="7.11601,7.21185 7.11192,7.31355 7.32507,7.31355 7.32101,7.21185 "/>
   <polygon class="fil6" points="7.57692,7.31355 7.56503,7.21185 7.36402,7.21185 7.36814,7.31355 "/>
   <polygon class="fil6" points="7.80859,7.16884 7.79246,7.07416 7.59233,7.07416 7.60338,7.16884 "/>
   <polygon class="fil6" points="7.11019,7.35652 7.1061,7.45819 7.33093,7.45819 7.32683,7.35652 "/>
   <polygon class="fil6" points="7.10437,7.50123 7.10024,7.60287 7.33675,7.60287 7.33265,7.50123 "/>
   <polygon class="fil6" points="7.0747,7.16884 7.07851,7.07416 6.88798,7.07416 6.87697,7.16884 "/>
   <polygon class="fil6" points="6.62844,7.16884 6.83369,7.16884 6.84466,7.07416 6.64456,7.07416 "/>
   <polygon class="fil6" points="8.11878,7.45819 8.09871,7.35652 7.88422,7.35652 7.90154,7.45819 "/>
   <polygon class="fil6" points="6.08023,7.35652 6.05741,7.45819 6.2744,7.45819 6.29451,7.35652 "/>
   <polygon class="fil6" points="3.33626,7.64587 3.28599,7.73481 3.5275,7.73481 3.57036,7.64587 "/>
   <polygon class="fil6" points="9.08377,7.45819 9.05414,7.35652 8.86985,7.35652 8.89821,7.45819 "/>
   <polygon class="fil6" points="8.95049,7.64587 8.97529,7.73481 9.16463,7.73481 9.13866,7.64587 "/>
   <polygon class="fil6" points="8.60862,7.45819 8.58304,7.35652 8.40094,7.35652 8.42373,7.45819 "/>
   <polygon class="fil6" points="7.05721,7.60287 7.0613,7.50123 6.83831,7.50123 6.82649,7.60287 "/>
   <polygon class="fil6" points="6.57179,7.50123 6.55447,7.60287 6.7832,7.60287 6.79502,7.50123 "/>
   <polygon class="fil6" points="3.41799,7.50123 3.36056,7.60287 3.59107,7.60287 3.64003,7.50123 "/>
   <polygon class="fil6" points="7.65883,7.64587 7.66924,7.73481 7.90504,7.73481 7.8899,7.64587 "/>
   <polygon class="fil6" points="4.1777,7.64587 4.13967,7.73481 4.37554,7.73481 4.41113,7.64587 "/>
   <polygon class="fil6" points="7.05548,7.64587 6.82148,7.64587 6.81114,7.73481 7.05188,7.73481 "/>
   <polygon class="fil6" points="3.61813,7.64587 3.57526,7.73481 3.81021,7.73481 3.85064,7.64587 "/>
   <polygon class="fil6" points="8.14253,7.35652 8.16263,7.45819 8.37963,7.45819 8.35684,7.35652 "/>
   <polygon class="fil6" points="9.1835,7.64587 9.20947,7.73481 9.44502,7.73481 9.41778,7.64587 "/>
   <polygon class="fil6" points="8.19971,7.64587 8.21724,7.73481 8.44175,7.73481 8.42182,7.64587 "/>
   <polygon class="fil6" points="9.36042,7.45819 9.32934,7.35652 9.09891,7.35652 9.12861,7.45819 "/>
   <polygon class="fil6" points="9.63153,7.45819 9.59495,7.35652 9.37436,7.35652 9.40544,7.45819 "/>
   <polygon class="fil6" points="7.93354,7.64587 7.94871,7.73481 8.17339,7.73481 8.15586,7.64587 "/>
   <polygon class="fil6" points="9.4628,7.64587 9.49003,7.73481 9.73105,7.73481 9.69905,7.64587 "/>
   <polygon class="fil6" points="3.58158,7.21185 3.52411,7.31355 3.73041,7.31355 3.77938,7.21185 "/>
   <polygon class="fil6" points="3.65937,7.07416 3.60588,7.16884 3.80009,7.16884 3.8457,7.07416 "/>
   <polygon class="fil6" points="9.90433,7.45819 9.86369,7.35652 9.64067,7.35652 9.67725,7.45819 "/>
   <polygon class="fil6" points="6.48836,7.73481 6.50349,7.64587 4.45749,7.64587 4.42189,7.73481 "/>
   <polygon class="fil6" points="8.46592,7.64587 8.48585,7.73481 8.67818,7.73481 8.65585,7.64587 "/>
   <polygon class="fil6" points="6.86014,7.31355 7.06888,7.31355 7.07297,7.21185 6.872,7.21185 "/>
   <polygon class="fil6" points="6.76782,7.73481 6.77816,7.64587 6.54713,7.64587 6.53196,7.73481 "/>
   <polygon class="fil6" points="7.09855,7.64587 7.09492,7.73481 7.62588,7.73481 7.61551,7.64587 "/>
   <polygon class="fil6" points="8.85355,7.45819 8.82519,7.35652 8.62742,7.35652 8.653,7.45819 "/>
   <polygon class="fil6" points="8.7002,7.64587 8.7226,7.73481 8.93063,7.73481 8.90583,7.64587 "/>
   <polygon class="fil6" points="3.49977,7.35652 3.44234,7.45819 3.66074,7.45819 3.70971,7.35652 "/>
   <polygon class="fil6" points="4.06749,7.16884 4.1105,7.07416 3.89343,7.07416 3.84785,7.16884 "/>
   <polygon class="fil6" points="3.89788,7.64587 3.85745,7.73481 4.09286,7.73481 4.13089,7.64587 "/>
   <polygon class="fil6" points="7.06303,7.45819 7.06715,7.35652 6.85513,7.35652 6.84332,7.45819 "/>
   <polygon class="fil6" points="7.86524,7.50123 7.642,7.50123 7.65382,7.60287 7.88256,7.60287 "/>
   <path class="fil6" d="M6.04199 7.89588c-0.00173,0 -0.00317,0.0011 -0.0037,0.00276l-0.17135 0.55696c-0.00049,0.00152 0.00004,0.00268 0.0006,0.00339 0.00053,0.00074 0.00148,0.00155 0.00311,0.00155l2.6957 0c0.00163,0 0.00261,-0.00081 0.00314,-0.00155 0.00053,-0.00071 0.0011,-0.00187 0.0006,-0.00339l-0.17138 -0.557c-0.00049,-0.00159 -0.00201,-0.00272 -0.0037,-0.00272l-2.35302 0zm2.52436 0.59655l-2.6957 0c-0.01147,0 -0.02195,-0.00529 -0.02879,-0.0145 -0.00677,-0.00921 -0.00875,-0.02078 -0.00536,-0.03175l0.17134 -0.55696c0.00466,-0.0151 0.01842,-0.02523 0.03415,-0.02523l2.35302 0c0.01577,0 0.02949,0.01016 0.03415,0.02523l0.17134 0.55696c0.00342,0.01097 0.00141,0.02254 -0.00536,0.03175 -0.00681,0.00921 -0.01729,0.0145 -0.02879,0.0145z"/>
  </g>
  <path class="fil6" d="M8.00618 5.0708l-1.42815 0c-0.18934,0 -0.34424,-0.15487 -0.34424,-0.34424l0 -0.74376c0,-0.18931 0.1549,-0.34421 0.34424,-0.34421l1.42815 0c0.18933,0 0.34424,0.1549 0.34424,0.34421l0 0.74376c0,0.18937 -0.15491,0.34424 -0.34424,0.34424z"/>
  <polygon class="fil2 str3" points="7.06497,4.35469 7.06497,4.0924 7.29212,4.22357 7.51927,4.35469 7.29212,4.48586 7.06497,4.61698 "/>
  <g id="_3024247032256">
   <path class="fil7" d="M9.33682 4.4854c-0.07919,-0.06282 -0.13525,-0.15541 -0.16195,-0.25288 -0.002,-0.00721 -0.01164,-0.00463 -0.01276,0.00158 -0.00182,-0.0024 -0.00542,-0.00274 -0.00832,-0.00122 -0.00141,-0.005 -0.00956,-0.0073 -0.01269,-0.00125 -0.05429,0.10527 -0.01235,0.22413 0.02398,0.32826 0.00284,0.00819 0.01191,0.00379 0.00904,-0.00443 -0.02845,-0.08147 -0.05887,-0.17271 -0.04157,-0.25858 -0.00964,0.10854 0.02653,0.2197 0.09278,0.30586 0.00477,0.00621 0.01221,-0.00125 0.0074,-0.00754 -0.06014,-0.07817 -0.09122,-0.17742 -0.08802,-0.27598 0.00186,0.03882 0.00787,0.07754 0.0203,0.11413 0.01902,0.05611 0.05083,0.10965 0.08266,0.15931 0.0047,0.00732 0.01208,-0.00021 0.0074,-0.00751 -0.0306,-0.04774 -0.05699,-0.09902 -0.07609,-0.15262 -0.00817,-0.02296 -0.01358,-0.04702 -0.01698,-0.07143 0.0183,0.07893 0.05642,0.15315 0.11121,0.21342 0.00577,0.00634 0.01342,0.0007 0.00756,-0.00573 -0.06003,-0.06602 -0.09615,-0.15055 -0.11105,-0.23778 0.02204,0.0817 0.06268,0.15895 0.1164,0.2253 0.00541,0.00671 0.01108,-0.00058 0.00558,-0.00735 -0.05242,-0.06477 -0.08707,-0.14051 -0.10872,-0.2202 0.02914,0.0822 0.067,0.1615 0.13384,0.21995 0.00653,0.00574 0.0137,-0.0009 0.00717,-0.00662 -0.04592,-0.04015 -0.07618,-0.09439 -0.10083,-0.1488 0.02673,0.04755 0.05893,0.09202 0.09629,0.13219 0.0059,0.00636 0.01088,-0.00375 0.00504,-0.01004 -0.03286,-0.03533 -0.05806,-0.07447 -0.08248,-0.11585 0.02513,0.03369 0.05437,0.06436 0.08748,0.09064 0.0068,0.0054 0.01415,0.00058 0.00733,-0.00483z"/>
   <polygon class="fil0" points="8.46349,2.66176 6.98599,2.89477 8.4066,3.60556 9.87799,3.38673 "/>
   <polygon class="fil8" points="6.98599,2.89477 6.98599,2.92859 8.40767,3.67155 9.87799,3.41909 9.87799,3.38673 8.4066,3.60556 "/>
   <path class="fil8" d="M7.53554 3.69445l-0.02263 0.15021c0,0 0.60669,0.48713 1.46216,0.24762l0.01312 -0.11736c-0.75619,0.1265 -1.23217,-0.11859 -1.45265,-0.28047z"/>
   <path class="fil7" d="M9.19767 3.34795c-0.03087,-0.03688 -0.07254,-0.06114 -0.11522,-0.08183 -0.08488,-0.04115 -0.17917,-0.05904 -0.27118,-0.07647 -0.13006,-0.02457 -0.26307,-0.04736 -0.37121,-0.12931 -0.0042,-0.00318 -0.00826,-0.0016 -0.01066,0.00166 -0.00021,0.00019 -0.00037,0.00042 -0.00055,0.00064 -0.00007,0.00012 -0.00016,0.00019 -0.00023,0.00032 -0.0026,0.0032 -0.00331,0.00781 0.00055,0.0115 0.07924,0.07575 0.18518,0.11326 0.28949,0.13963 0.10539,0.02669 0.21295,0.04497 0.31383,0.08685 0.00311,0.0013 0.00625,0.0026 0.00938,0.0039 0.0006,0.00025 0.00393,0.00178 0.00397,0.00176 0.00516,0.00249 0.01027,0.00509 0.01541,0.00763 0.01887,0.00937 0.03727,0.01909 0.05454,0.03123 0.02072,0.01459 0.03991,0.03244 0.05324,0.05415 0.01454,0.02372 0.0196,0.05033 0.01906,0.07792 -0.00055,0.02871 -0.00587,0.05724 -0.01053,0.08551 -0.00483,0.02928 -0.00917,0.05863 -0.01368,0.08795 -0.00931,0.06064 -0.01798,0.1213 -0.02452,0.18228 -0.0144,0.13426 -0.01834,0.27118 0.00582,0.40459 0.00177,0.0099 0.0184,0.00773 0.01765,-0.00241 -0.00938,-0.1266 0.00095,-0.25355 0.01871,-0.37898 0.00885,-0.06243 0.01954,-0.1246 0.03047,-0.18668 0.01024,-0.0583 0.02377,-0.11704 0.02855,-0.17612 0.00435,-0.05355 -0.00806,-0.10409 -0.04289,-0.14572z"/>
   <polygon class="fil9" points="9.03258,3.62144 9.03994,3.56299 8.40767,3.67155 7.61172,3.25558 7.59466,3.35388 8.39177,3.75517 "/>
   <path class="fil0" d="M8.39177 3.75517l-0.79711 -0.40129 -0.05912 0.34057c0.22048,0.16188 0.69646,0.40697 1.45265,0.28047l0.04439 -0.35348 -0.64081 0.13373z"/>
   <path class="fil10" d="M9.134 4.25454c0.00153,-0.00075 0.00308,-0.00143 0.00463,-0.00208 0.00096,-0.00038 0.0009,-0.00036 -0.00012,0.00003 0.00044,-0.00017 0.00088,-0.00034 0.00135,-0.00048 0.00069,-0.00023 0.00139,-0.00046 0.00208,-0.00066 0.00335,-0.00105 0.00682,-0.00179 0.01029,-0.00229 0.00083,-0.00013 0.00169,-0.00027 0.00253,-0.00032 -0.00235,0.00012 0.00037,0 0.00087,-0.00004 0.00167,-0.00009 0.00338,-0.00012 0.00509,-0.00009 0.00167,0.00004 0.00338,0.00014 0.00507,0.0003 0.00085,0.00009 0.00169,0.00018 0.00251,0.00029 0.0005,0.00005 0.00098,0.00014 0.00144,0.00021 -0.00117,-0.00021 -0.00124,-0.00023 -0.00021,-0.00003 0.00245,0.00046 0.00464,0.00058 0.00694,-0.00064 0.00192,-0.00104 0.00377,-0.0031 0.00436,-0.00522 0.00112,-0.00422 -0.00093,-0.01036 -0.00587,-0.01129 -0.01689,-0.00314 -0.03395,-0.00115 -0.04945,0.00645 -0.00422,0.00208 -0.00611,0.0081 -0.00369,0.01216 0.00257,0.00431 0.00766,0.00591 0.01218,0.0037l0 0z"/>
   <path class="fil10" d="M9.13085 4.23946c0.00153,-0.00077 0.00309,-0.00142 0.00466,-0.0021 0.00095,-0.00038 0.00089,-0.00036 -0.00016,0.00005 0.00045,-0.00018 0.00093,-0.00034 0.00137,-0.0005 0.0007,-0.00023 0.00139,-0.00046 0.00208,-0.00068 0.00337,-0.00101 0.0068,-0.00178 0.01029,-0.00227 0.00082,-0.00013 0.00168,-0.00027 0.00253,-0.0003 -0.00235,0.00012 0.00039,-0.00002 0.00086,-0.00004 0.0017,-0.00009 0.00339,-0.00012 0.00509,-0.00009 0.0017,0.00004 0.00339,0.00013 0.00507,0.00028 0.00085,0.00008 0.00171,0.00018 0.00254,0.00029 0.00049,0.00007 0.00097,0.00014 0.00144,0.00023 -0.00119,-0.00023 -0.00126,-0.00023 -0.00023,-0.00005 0.00248,0.00046 0.00465,0.0006 0.00697,-0.00064 0.0019,-0.00102 0.00377,-0.00308 0.00432,-0.0052 0.00112,-0.00424 -0.00091,-0.01038 -0.00586,-0.0113 -0.01689,-0.00316 -0.03392,-0.00116 -0.04942,0.00644 -0.00424,0.00206 -0.00611,0.00808 -0.00371,0.01218 0.00254,0.0043 0.00764,0.0059 0.01216,0.0037l0 0z"/>
  </g>
 </g>
</svg>
